 <svg  version="1.0" xmlns="http://www.w3.org/2000/svg"  width="192.000000pt" height="192.000000pt" viewBox="0 0 192.000000 192.000000"  preserveAspectRatio="xMidYMid meet">  <g transform="translate(0.000000,192.000000) scale(0.100000,-0.100000)" fill="#111111" stroke="none"> <path d="M918 1843 c23 -2 61 -2 85 0 23 2 4 4 -43 4 -47 0 -66 -2 -42 -4z"/> <path d="M808 1833 c6 -2 18 -2 25 0 6 3 1 5 -13 5 -14 0 -19 -2 -12 -5z"/> <path d="M1088 1833 c6 -2 18 -2 25 0 6 3 1 5 -13 5 -14 0 -19 -2 -12 -5z"/> <path d="M728 1813 c7 -3 16 -2 19 1 4 3 -2 6 -13 5 -11 0 -14 -3 -6 -6z"/> <path d="M1269 1785 c18 -8 36 -15 40 -15 13 1 -45 29 -59 29 -8 0 0 -6 19 -14z"/> <path d="M610 1775 c-14 -8 -20 -14 -15 -14 6 0 21 6 35 14 14 8 21 14 15 14 -5 0 -21 -6 -35 -14z"/> <path d="M555 1750 c-3 -6 1 -7 9 -4 18 7 21 14 7 14 -6 0 -13 -4 -16 -10z"/> <path d="M1340 1756 c0 -2 7 -7 16 -10 8 -3 12 -2 9 4 -6 10 -25 14 -25 6z"/> <path d="M520 1730 c-9 -6 -10 -10 -3 -10 6 0 15 5 18 10 8 12 4 12 -15 0z"/> <path d="M455 1674 c-16 -8 -21 -11 -10 -8 11 4 75 9 143 12 l122 4 0 -236 0 -236 -236 0 -236 0 4 123 c3 67 8 131 12 142 8 20 7 20 -8 1 -14 -18 -16 -78 -16 -513 0 -468 1 -495 19 -529 33 -61 90 -122 154 -164 l62 -40 495 0 495 0 65 42 c63 40 98 78 147 157 22 36 22 38 23 531 l0 496 -54 64 c-29 36 -72 79 -93 97 l-40 32 -34 -35 c-18 -19 -37 -34 -41 -34 -12 0 -198 -193 -192 -199 8 -9 38 14 51 40 7 13 13 20 13 15 0 -5 20 12 45 37 25 26 45 51 45 55 0 16 38 44 50 37 5 -3 8 -11 5 -16 -3 -5 1 -6 10 -3 14 6 14 8 -2 21 -16 13 -16 14 -1 9 10 -3 22 4 32 19 17 25 52 24 42 -1 -3 -8 0 -11 10 -7 33 12 9 -18 -68 -88 -45 -41 -127 -117 -182 -170 -56 -53 -125 -118 -155 -145 l-53 -50 39 -35 c71 -65 78 -86 75 -236 l-3 -133 -234 0 -235 0 0 235 0 235 149 0 c82 0 157 3 165 6 12 5 15 2 10 -10 -3 -9 -11 -13 -18 -10 -6 3 0 -4 14 -15 28 -23 40 -26 40 -11 0 6 -6 10 -14 10 -15 0 -15 11 -1 43 5 11 14 16 23 12 9 -3 14 -3 11 0 -8 7 54 75 68 75 6 0 13 10 16 21 4 13 11 20 20 16 7 -3 14 1 14 8 0 21 -31 2 -111 -68 l-68 -61 -159 -4 -159 -4 0 236 0 236 235 0 235 0 0 -161 c0 -104 3 -158 10 -154 6 4 10 69 10 162 l0 155 123 -4 c67 -3 131 -8 142 -12 20 -8 20 -7 1 8 -18 14 -77 16 -505 16 -407 -1 -491 -3 -516 -16z m1148 -144 c9 -11 17 -26 16 -33 0 -6 -29 -38 -64 -69 -35 -31 -60 -59 -57 -62 3 -3 0 -6 -6 -6 -17 0 -53 -38 -43 -45 5 -2 11 2 15 10 3 8 12 15 20 15 9 0 20 9 26 20 6 11 15 18 20 15 14 -9 -5 -50 -23 -50 -9 0 -22 -7 -29 -15 -11 -12 -11 -12 4 -2 9 7 19 9 22 4 3 -4 -8 -16 -25 -26 -16 -9 -29 -22 -29 -27 0 -6 -5 -7 -12 -3 -7 5 -9 2 -5 -9 8 -20 -18 -41 -40 -33 -10 4 -14 4 -11 0 7 -6 -92 -113 -102 -110 -3 1 -17 -11 -32 -26 -15 -15 -24 -28 -22 -28 3 0 -1 -7 -10 -15 -19 -19 -22 -19 -30 1 -8 20 12 47 27 37 6 -3 7 -1 3 5 -4 7 9 25 30 44 21 18 45 41 53 50 11 13 17 15 23 5 7 -9 8 -8 7 3 -3 29 1 41 11 35 6 -3 10 -1 10 5 0 6 5 8 12 4 7 -4 8 -3 4 4 -9 15 -33 3 -62 -30 -12 -12 -47 -47 -78 -77 l-56 -54 -35 36 -34 35 49 44 c28 23 79 71 113 106 35 34 69 62 76 62 6 0 11 5 11 11 0 14 91 95 102 91 5 -1 7 2 4 6 -9 14 31 45 46 36 7 -4 10 -3 5 1 -11 13 33 55 58 55 11 0 28 -9 38 -20z m62 -81 c-4 -5 -1 -9 4 -9 7 0 11 -40 11 -113 l0 -112 -125 -1 -126 -1 91 85 c73 68 88 87 79 98 -10 12 -14 10 -26 -13 -18 -34 -39 -56 -30 -31 3 10 2 20 -4 23 -14 9 0 27 17 21 8 -3 11 0 8 8 -3 7 11 27 31 45 30 26 39 29 56 21 11 -6 17 -15 14 -21z m-955 -484 l0 -235 -235 0 -235 0 0 235 0 235 235 0 235 0 0 -235z m970 0 l0 -235 -235 0 -235 0 0 138 -1 137 103 97 103 97 133 1 132 0 0 -235z m-970 -490 l-1 -235 -102 0 c-138 0 -162 9 -245 86 -108 99 -115 115 -120 261 l-4 123 236 0 237 0 -1 -235z m480 0 l0 -235 -235 0 -235 0 0 235 0 235 235 0 235 0 0 -235z m490 133 c0 -150 -8 -169 -105 -265 -97 -95 -116 -103 -262 -103 l-103 0 0 235 0 235 235 0 235 0 0 -102z"/> <path d="M1405 1290 c-25 -27 -12 -37 14 -11 12 12 21 23 21 26 0 11 -18 4 -35 -15z"/> <path d="M1370 1250 c0 -5 5 -10 11 -10 5 0 7 5 4 10 -3 6 -8 10 -11 10 -2 0 -4 -4 -4 -10z"/> <path d="M1622 1424 c-16 -15 -20 -24 -12 -29 7 -4 22 2 33 14 29 29 9 44 -21 15z"/> <path d="M441 1012 c-58 -89 -64 -126 -28 -160 50 -47 131 -15 131 51 0 45 -27 77 -65 77 l-29 0 35 55 c24 37 31 55 22 55 -8 0 -38 -35 -66 -78z m61 -69 c39 -36 5 -102 -47 -89 -37 9 -52 48 -31 81 19 29 51 32 78 8z"/> <path d="M1433 993 l-72 -103 66 0 66 0 -6 -30 c-5 -22 -3 -30 8 -30 10 0 15 10 15 30 0 20 5 30 15 30 8 0 15 7 15 15 0 8 -7 15 -15 15 -11 0 -15 19 -17 88 l-3 88 -72 -103z m59 -13 l-4 -60 -38 0 -39 0 41 60 c23 33 42 60 42 60 1 0 -1 -27 -2 -60z"/> <path d="M1420 1060 c0 -5 5 -10 11 -10 5 0 7 5 4 10 -3 6 -8 10 -11 10 -2 0 -4 -4 -4 -10z"/> <path d="M1376 1003 c-6 -14 -5 -15 5 -6 7 7 10 15 7 18 -3 3 -9 -2 -12 -12z"/> <path d="M1565 941 c-3 -5 -2 -12 3 -15 5 -3 9 1 9 9 0 17 -3 19 -12 6z"/> <path d="M1360 859 c0 -6 -11 -9 -24 -7 -13 1 -34 -2 -47 -9 -13 -6 -33 -14 -44 -18 -13 -5 -15 -9 -8 -12 14 -5 142 34 158 48 5 5 0 9 -13 9 -12 0 -22 -5 -22 -11z"/> <path d="M390 584 c0 -13 10 -15 60 -12 33 1 60 2 60 0 0 -2 -25 -52 -55 -111 -58 -113 -61 -121 -45 -121 7 0 113 192 138 252 2 5 -33 8 -77 8 -67 0 -81 -3 -81 -16z"/> <path d="M935 600 c-46 -18 -65 -83 -31 -102 15 -8 14 -12 -9 -39 -31 -38 -32 -63 0 -94 17 -18 35 -25 63 -25 76 0 113 63 69 116 -24 29 -24 30 -7 52 10 12 16 31 13 41 -10 40 -61 66 -98 51z m56 -30 c25 -14 24 -42 -2 -66 -19 -17 -23 -17 -47 -3 -32 18 -39 41 -17 63 19 19 38 20 66 6z m11 -117 c36 -32 10 -93 -40 -93 -56 0 -83 64 -40 94 29 21 57 20 80 -1z"/> <path d="M856 588 c3 -5 10 -6 15 -3 13 9 11 12 -6 12 -8 0 -12 -4 -9 -9z"/> <path d="M1424 600 c-28 -11 -54 -48 -54 -78 0 -33 45 -75 76 -69 13 2 24 3 24 1 0 -2 -16 -26 -35 -53 -26 -35 -32 -52 -24 -57 14 -8 22 2 82 99 43 70 46 96 15 131 -27 29 -55 38 -84 26z m57 -30 c27 -15 26 -75 -2 -90 -58 -32 -113 48 -61 88 19 15 37 15 63 2z"/> <path d="M343 1598 c-36 -35 -69 -72 -75 -83 -5 -11 2 -7 17 10 14 17 30 29 36 27 6 -1 8 2 5 7 -4 5 17 30 46 55 29 25 49 46 44 46 -4 0 -37 -28 -73 -62z"/> <path d="M427 1573 c-13 -12 -7 -23 14 -23 19 0 20 -5 17 -115 -2 -87 0 -115 10 -115 9 0 12 33 12 130 0 130 0 130 -23 130 -13 0 -27 -3 -30 -7z"/> <path d="M905 1555 c-28 -27 -37 -77 -10 -55 8 7 15 18 15 26 0 19 38 37 66 30 29 -8 47 -40 39 -67 -4 -12 -39 -54 -77 -95 l-71 -74 92 0 c77 0 91 2 91 16 0 14 -10 16 -60 12 -33 -2 -60 -2 -60 0 0 2 25 31 55 64 43 47 55 66 55 92 0 69 -85 102 -135 51z"/> <path d="M1415 1541 c-3 -5 -2 -12 3 -15 5 -3 9 1 9 9 0 17 -3 19 -12 6z"/> <path d="M188 1408 c-47 -75 -101 -240 -113 -343 -20 -166 20 -385 93 -519 47 -86 52 -61 6 31 -73 148 -105 337 -84 493 13 97 59 245 96 308 26 45 28 71 2 30z"/> <path d="M1735 1378 c38 -68 83 -215 96 -312 20 -157 -11 -340 -85 -489 -24 -48 -39 -86 -32 -84 6 2 26 34 45 73 18 38 37 76 41 85 45 91 60 388 27 520 -17 71 -95 249 -108 249 -4 0 3 -19 16 -42z"/> <path d="M1275 1371 c-3 -5 -2 -12 3 -15 5 -3 9 1 9 9 0 17 -3 19 -12 6z"/> <path d="M937 1055 c-36 -63 -61 -115 -56 -115 5 0 15 12 22 28 6 15 14 29 17 32 3 3 13 22 22 43 10 20 22 37 28 37 5 0 10 9 10 19 0 11 4 22 9 25 8 5 23 46 17 46 -2 0 -32 -52 -69 -115z"/> <path d="M1066 1105 c4 -8 8 -15 10 -15 2 0 4 7 4 15 0 8 -4 15 -10 15 -5 0 -7 -7 -4 -15z"/> <path d="M1035 1080 c-15 -17 -16 -20 -3 -20 9 0 18 9 21 20 3 11 4 20 3 20 -2 0 -11 -9 -21 -20z"/> <path d="M1000 1042 c0 -4 -24 -35 -54 -67 -30 -33 -52 -62 -50 -64 6 -6 104 98 104 110 0 6 4 8 9 5 5 -3 11 1 15 9 3 9 0 15 -9 15 -8 0 -15 -4 -15 -8z"/> <path d="M1120 1031 c-128 -89 -190 -136 -189 -145 0 -6 3 -6 6 2 2 6 11 12 18 12 7 0 15 4 17 8 7 17 67 52 81 46 10 -3 14 0 14 12 -3 26 18 27 30 2 l11 -23 -1 23 c-1 12 -5 22 -10 22 -4 0 -5 5 -2 11 4 6 9 8 12 5 2 -2 14 5 25 16 26 26 20 31 -12 9z"/> <path d="M1024 1004 c-18 -14 -18 -15 4 -4 12 6 22 13 22 15 0 8 -5 6 -26 -11z"/> <path d="M1143 988 c-23 -11 -31 -28 -13 -28 6 0 10 5 10 10 0 6 6 10 14 10 8 0 18 5 21 10 8 13 -3 12 -32 -2z"/> <path d="M827 859 l-36 -60 194 1 c152 1 193 4 189 14 -4 10 -42 12 -157 11 -84 -1 -161 -6 -171 -10 -13 -6 -17 -5 -13 2 4 6 21 16 39 23 18 8 35 15 37 16 2 2 -8 17 -22 33 l-25 30 -35 -60z"/> <path d="M934 864 c-19 -15 -19 -16 1 -9 11 4 25 8 32 8 7 0 10 4 7 9 -8 12 -18 10 -40 -8z"/> <path d="M490 212 c0 -8 36 -42 45 -42 2 0 33 -13 68 -29 163 -75 380 -96 562 -54 17 4 32 7 35 8 18 2 115 43 165 70 83 45 82 64 -1 22 -261 -130 -546 -131 -806 0 -38 18 -68 30 -68 25z"/> </g> </svg> 