 <svg version="1.0" xmlns="http://www.w3.org/2000/svg"  width="240.000000pt" height="240.000000pt" viewBox="0 0 240.000000 240.000000"  preserveAspectRatio="xMidYMid meet">  <g transform="translate(0.000000,240.000000) scale(0.100000,-0.100000)" fill="#000000" stroke="none"> <path d="M1040 2313 c-79 -9 -362 -114 -347 -129 3 -3 15 0 28 6 42 23 193 70 272 85 47 9 135 15 216 15 146 0 242 -17 380 -64 41 -14 76 -24 79 -22 19 20 -194 90 -321 106 -78 10 -232 11 -307 3z"/> <path d="M623 2106 c-127 -20 -94 -29 80 -21 l167 7 0 -281 0 -281 -281 0 -282 0 7 168 c6 150 5 164 -9 142 -11 -20 -15 -79 -16 -305 -1 -154 -5 -426 -8 -605 l-6 -325 -37 70 c-47 90 -80 180 -104 280 -26 113 -26 379 0 485 20 80 69 228 87 261 5 11 9 25 6 32 -6 19 -74 -112 -102 -198 -103 -314 -57 -701 107 -908 22 -28 52 -76 68 -107 42 -83 113 -155 224 -229 54 -36 123 -83 153 -103 60 -41 127 -68 243 -101 65 -18 103 -21 280 -21 192 0 211 2 303 27 113 31 199 72 277 132 30 23 85 61 122 84 79 50 159 134 195 205 14 28 47 81 74 117 61 83 103 174 132 287 18 74 22 114 22 272 0 168 -3 194 -27 288 -25 96 -61 173 -108 232 -15 20 -20 21 -20 8 0 -9 4 -19 10 -23 11 -7 73 -195 91 -280 21 -95 18 -363 -5 -460 -24 -100 -57 -190 -104 -280 l-37 -70 -3 607 -2 607 -66 73 c-36 40 -88 94 -116 120 l-51 47 -71 -59 c-39 -32 -109 -97 -156 -145 -47 -47 -97 -95 -112 -106 l-28 -20 0 182 0 182 156 -7 c86 -4 163 -10 171 -13 11 -4 14 -1 11 8 -3 8 -28 17 -64 22 -94 14 -1087 16 -1171 3z m857 -220 l0 -204 -87 -76 -86 -76 -200 0 -200 0 6 188 c4 103 7 229 7 280 l0 92 280 0 280 0 0 -204z m406 51 c-21 -27 -350 -342 -495 -474 l-45 -40 51 -54 c81 -86 83 -94 83 -284 l0 -165 -285 0 -285 0 0 285 0 285 175 0 c169 0 175 -1 211 -25 20 -14 41 -25 45 -25 5 0 15 15 23 34 8 18 23 40 34 47 10 8 48 46 83 84 35 39 80 83 102 98 21 16 79 67 128 115 118 114 161 149 192 151 4 1 -3 -14 -17 -32z m102 -81 c3 -4 -21 -34 -54 -67 -87 -90 -466 -440 -471 -436 -11 12 23 113 48 142 16 18 29 38 29 44 0 6 10 10 22 8 17 -1 24 4 26 21 2 12 10 22 19 22 8 0 17 8 20 18 2 10 26 30 54 45 27 16 49 34 49 41 0 8 13 16 29 19 23 5 30 13 35 42 4 19 13 35 20 35 17 0 56 34 56 48 0 20 34 33 73 28 21 -2 41 -7 45 -10z m100 -209 l3 -117 -142 0 -142 0 19 22 c45 50 239 218 248 215 7 -2 12 -49 14 -120z m-1218 -442 l0 -285 -280 0 -280 0 0 285 0 285 280 0 280 0 0 -285z m1183 279 l37 -7 0 -278 0 -279 -285 0 -285 0 0 174 0 174 122 111 121 111 126 0 c69 0 143 -3 164 -6z m-1183 -889 l0 -285 -121 0 c-186 0 -195 4 -320 130 l-106 106 -6 100 c-4 54 -7 129 -7 167 l0 67 280 0 280 0 0 -285z m610 0 l0 -285 -285 0 -285 0 0 285 0 285 285 0 285 0 0 -285z m607 136 c-4 -94 -11 -162 -20 -183 -18 -40 -182 -203 -223 -219 -16 -7 -95 -14 -176 -17 l-148 -4 0 286 0 286 287 0 286 0 -6 -149z m-379 -491 c-164 -84 -320 -122 -508 -122 -188 0 -344 38 -508 122 l-77 39 585 0 585 0 -77 -39z"/> <path d="M1125 1945 c-25 -24 -33 -69 -16 -79 5 -3 18 10 30 29 33 57 87 66 117 20 23 -36 9 -66 -82 -169 l-84 -96 104 0 c76 0 107 4 115 14 15 18 -13 26 -89 26 l-54 0 36 38 c54 56 98 131 98 168 0 46 -38 74 -102 74 -39 0 -54 -5 -73 -25z"/> <path d="M1202 1378 c-36 -53 -85 -148 -79 -155 6 -5 77 80 77 92 0 5 9 18 19 29 23 25 38 76 23 76 -6 0 -24 -19 -40 -42z"/> <path d="M1221 1268 c-79 -91 -91 -108 -71 -108 14 0 134 109 141 129 4 9 14 23 23 30 9 7 16 20 16 27 0 32 -34 8 -109 -78z"/> <path d="M1292 1213 c-100 -73 -117 -89 -104 -99 8 -6 12 -16 7 -23 -11 -19 -55 -4 -91 30 l-30 29 -37 -66 c-21 -37 -35 -69 -32 -72 12 -12 410 -14 440 -2 l30 12 -29 23 c-27 22 -73 44 -119 59 -28 9 -6 40 63 89 38 28 58 49 57 62 -1 22 -15 45 -27 45 -4 0 -62 -39 -128 -87z"/> <path d="M592 1323 c-68 -78 -113 -192 -98 -241 15 -46 121 -58 161 -17 46 45 18 155 -38 155 -45 0 -52 15 -25 51 46 62 59 87 49 93 -5 3 -27 -15 -49 -41z m32 -144 c14 -11 26 -30 26 -43 0 -79 -107 -91 -125 -14 -5 21 -1 33 19 52 31 31 45 32 80 5z"/> <path d="M1805 1267 c-44 -65 -86 -127 -94 -137 -13 -19 -11 -20 67 -20 l81 0 -6 -35 c-4 -27 -2 -35 10 -35 16 0 27 20 27 50 0 10 7 20 15 24 19 7 19 32 0 39 -11 5 -15 31 -17 119 l-3 113 -80 -118z m53 -59 l-3 -53 -37 -3 c-25 -2 -38 1 -38 9 0 15 62 98 73 99 4 0 7 -24 5 -52z"/> <path d="M1645 1082 c-45 -4 -79 -20 -93 -42 -10 -17 -10 -20 7 -20 19 0 156 40 149 44 -1 1 -10 6 -18 12 -8 5 -28 8 -45 6z"/> <path d="M500 740 c-23 -14 -6 -22 64 -27 36 -3 66 -7 66 -9 0 -1 -30 -64 -67 -138 -36 -75 -64 -138 -61 -141 12 -12 178 276 178 308 0 15 -12 17 -82 17 -46 0 -90 -4 -98 -10z"/> <path d="M1164 750 c-12 -5 -29 -19 -38 -32 -20 -29 -21 -87 -1 -94 21 -8 19 -27 -4 -48 -50 -46 -29 -127 38 -147 47 -14 81 -7 116 24 38 33 42 74 11 119 -21 31 -22 39 -10 49 22 18 17 74 -8 103 -25 29 -72 40 -104 26z m78 -47 c24 -22 23 -49 -4 -67 -29 -21 -57 -20 -80 1 -22 20 -23 41 -1 65 20 22 61 23 85 1z m11 -145 c9 -11 17 -28 17 -38 0 -25 -31 -58 -60 -65 -53 -13 -100 56 -67 97 32 41 77 43 110 6z"/> <path d="M1754 726 c-26 -26 -34 -42 -34 -70 0 -50 25 -84 66 -92 19 -3 34 -9 34 -13 0 -4 -16 -31 -34 -61 -22 -34 -31 -57 -24 -59 29 -10 148 180 148 235 -1 32 -13 52 -50 77 -37 26 -68 21 -106 -17z m100 -22 c24 -24 20 -80 -6 -98 -31 -22 -45 -20 -73 9 -30 29 -32 54 -5 83 24 26 62 29 84 6z"/> <path d="M450 2031 c-66 -54 -135 -136 -121 -146 8 -4 201 179 201 191 0 13 -26 -2 -80 -45z"/> <path d="M527 1964 c-12 -12 -8 -24 8 -24 20 0 24 -25 27 -162 2 -64 7 -120 11 -124 19 -20 27 31 24 166 l-2 145 -30 3 c-17 2 -34 0 -38 -4z"/> </g> </svg> 